<?xml version="1.0" encoding="UTF-8" standalone="no"?>
<!DOCTYPE svg PUBLIC "-//W3C//DTD SVG 1.1//EN"
 "http://www.w3.org/Graphics/SVG/1.1/DTD/svg11.dtd">
<!-- Generated by graphviz version 2.38.0 (20140413.2041)
 -->
<!-- Title: %3 Pages: 1 -->
<svg width="447pt" height="1574pt"
 viewBox="0.00 0.00 447.39 1574.12" xmlns="http://www.w3.org/2000/svg" xmlns:xlink="http://www.w3.org/1999/xlink">
<g id="graph0" class="graph" transform="scale(1 1) rotate(0) translate(4 1570.12)">
<title>%3</title>
<polygon fill="white" stroke="none" points="-4,4 -4,-1570.12 443.394,-1570.12 443.394,4 -4,4"/>
<!-- &#45;4939665168301612241 -->
<g id="node1" class="node"><title>&#45;4939665168301612241</title>
<polygon fill="none" stroke="black" points="314.394,-231.886 260.394,-231.886 260.394,-195.886 314.394,-195.886 314.394,-231.886"/>
</g>
<!-- 4696261460555115353 -->
<g id="node4" class="node"><title>4696261460555115353</title>
<ellipse fill="none" stroke="black" cx="163.394" cy="-335.48" rx="27.8951" ry="27.8951"/>
<text text-anchor="middle" x="163.394" y="-331.78" font-family="Times,serif" font-size="14.00">copy</text>
</g>
<!-- &#45;4939665168301612241&#45;&gt;4696261460555115353 -->
<g id="edge3" class="edge"><title>&#45;4939665168301612241&#45;&gt;4696261460555115353</title>
<path fill="none" stroke="black" d="M260.339,-230.21C244.72,-239.827 225.284,-253.17 210.394,-267.886 200.048,-278.111 190.433,-290.862 182.629,-302.462"/>
<polygon fill="black" stroke="black" points="179.562,-300.759 177.033,-311.047 185.426,-304.581 179.562,-300.759"/>
</g>
<!-- &#45;301965166411201407 -->
<g id="node8" class="node"><title>&#45;301965166411201407</title>
<ellipse fill="none" stroke="black" cx="287.394" cy="-335.48" rx="67.6881" ry="67.6881"/>
<text text-anchor="middle" x="287.394" y="-331.78" font-family="Times,serif" font-size="14.00">subset_200x200</text>
</g>
<!-- &#45;4939665168301612241&#45;&gt;&#45;301965166411201407 -->
<g id="edge6" class="edge"><title>&#45;4939665168301612241&#45;&gt;&#45;301965166411201407</title>
<path fill="none" stroke="black" d="M287.394,-232.021C287.394,-239.211 287.394,-248.119 287.394,-257.657"/>
<polygon fill="black" stroke="black" points="283.895,-257.779 287.394,-267.779 290.895,-257.779 283.895,-257.779"/>
</g>
<!-- 5416966845816663259 -->
<g id="node14" class="node"><title>5416966845816663259</title>
<ellipse fill="none" stroke="black" cx="332.394" cy="-893.999" rx="43.5923" ry="43.5923"/>
<text text-anchor="middle" x="332.394" y="-890.299" font-family="Times,serif" font-size="14.00">threshold</text>
</g>
<!-- &#45;4939665168301612241&#45;&gt;5416966845816663259 -->
<g id="edge15" class="edge"><title>&#45;4939665168301612241&#45;&gt;5416966845816663259</title>
<path fill="none" stroke="black" d="M314.419,-227.582C331.028,-236.659 351.522,-250.359 364.394,-267.886 416.202,-338.427 422.394,-368.552 422.394,-456.074 422.394,-456.074 422.394,-456.074 422.394,-618.664 422.394,-702.124 384.322,-793.069 357.703,-846.457"/>
<polygon fill="black" stroke="black" points="354.439,-845.155 353.042,-855.658 360.683,-848.318 354.439,-845.155"/>
</g>
<!-- &#45;4244857439592208462 -->
<g id="node2" class="node"><title>&#45;4244857439592208462</title>
<ellipse fill="none" stroke="black" cx="287.394" cy="-79.9429" rx="79.8859" ry="79.8859"/>
<text text-anchor="middle" x="287.394" y="-76.2429" font-family="Times,serif" font-size="14.00">load_sigma_naught</text>
</g>
<!-- &#45;4244857439592208462&#45;&gt;&#45;4939665168301612241 -->
<g id="edge1" class="edge"><title>&#45;4244857439592208462&#45;&gt;&#45;4939665168301612241</title>
<path fill="none" stroke="black" d="M287.394,-159.98C287.394,-169.082 287.394,-177.838 287.394,-185.518"/>
<polygon fill="black" stroke="black" points="283.895,-185.581 287.394,-195.582 290.895,-185.582 283.895,-185.581"/>
</g>
<!-- 3487822855962488200 -->
<g id="node3" class="node"><title>3487822855962488200</title>
<polygon fill="none" stroke="black" points="184.394,-475.074 130.394,-475.074 130.394,-439.074 184.394,-439.074 184.394,-475.074"/>
</g>
<!-- &#45;7994978522418077316 -->
<g id="node12" class="node"><title>&#45;7994978522418077316</title>
<ellipse fill="none" stroke="black" cx="170.394" cy="-893.999" rx="61.99" ry="61.99"/>
<text text-anchor="middle" x="170.394" y="-890.299" font-family="Times,serif" font-size="14.00">save_originals</text>
</g>
<!-- 3487822855962488200&#45;&gt;&#45;7994978522418077316 -->
<g id="edge10" class="edge"><title>3487822855962488200&#45;&gt;&#45;7994978522418077316</title>
<path fill="none" stroke="black" d="M157.904,-475.123C159.608,-532.121 165.172,-718.267 168.267,-821.84"/>
<polygon fill="black" stroke="black" points="164.771,-822.013 168.568,-831.904 171.768,-821.804 164.771,-822.013"/>
</g>
<!-- 4696261460555115353&#45;&gt;3487822855962488200 -->
<g id="edge2" class="edge"><title>4696261460555115353&#45;&gt;3487822855962488200</title>
<path fill="none" stroke="black" d="M162.033,-363.618C161.053,-383.155 159.736,-409.403 158.756,-428.94"/>
<polygon fill="black" stroke="black" points="155.256,-428.855 158.25,-439.018 162.247,-429.206 155.256,-428.855"/>
</g>
<!-- &#45;8564329857083795566 -->
<g id="node5" class="node"><title>&#45;8564329857083795566</title>
<polygon fill="none" stroke="black" points="107.394,-796.255 53.3945,-796.255 53.3945,-760.255 107.394,-760.255 107.394,-796.255"/>
</g>
<!-- &#45;8564329857083795566&#45;&gt;&#45;7994978522418077316 -->
<g id="edge11" class="edge"><title>&#45;8564329857083795566&#45;&gt;&#45;7994978522418077316</title>
<path fill="none" stroke="black" d="M94.0635,-796.53C102.694,-807.437 114.376,-822.201 126.004,-836.897"/>
<polygon fill="black" stroke="black" points="123.489,-839.359 132.438,-845.029 128.978,-835.016 123.489,-839.359"/>
</g>
<!-- &#45;4102518829299978155 -->
<g id="node16" class="node"><title>&#45;4102518829299978155</title>
<ellipse fill="none" stroke="black" cx="223.394" cy="-1133.29" rx="69.5877" ry="69.5877"/>
<text text-anchor="middle" x="223.394" y="-1129.59" font-family="Times,serif" font-size="14.00">save_watermask</text>
</g>
<!-- &#45;8564329857083795566&#45;&gt;&#45;4102518829299978155 -->
<g id="edge20" class="edge"><title>&#45;8564329857083795566&#45;&gt;&#45;4102518829299978155</title>
<path fill="none" stroke="black" d="M79.4573,-796.447C78.2911,-828.778 78.5627,-900.363 99.3945,-955.744 115.502,-998.565 144.469,-1040.72 170.356,-1073.09"/>
<polygon fill="black" stroke="black" points="167.842,-1075.54 176.862,-1081.1 173.276,-1071.13 167.842,-1075.54"/>
</g>
<!-- &#45;762329989216574669 -->
<g id="node6" class="node"><title>&#45;762329989216574669</title>
<ellipse fill="none" stroke="black" cx="62.3945" cy="-617.664" rx="62.2891" ry="62.2891"/>
<text text-anchor="middle" x="62.3945" y="-613.964" font-family="Times,serif" font-size="14.00">load_metadata</text>
</g>
<!-- &#45;762329989216574669&#45;&gt;&#45;8564329857083795566 -->
<g id="edge4" class="edge"><title>&#45;762329989216574669&#45;&gt;&#45;8564329857083795566</title>
<path fill="none" stroke="black" d="M69.3537,-679.98C72.0956,-704.137 75.1041,-730.644 77.2872,-749.879"/>
<polygon fill="black" stroke="black" points="73.8331,-750.481 78.4386,-760.022 80.7884,-749.691 73.8331,-750.481"/>
</g>
<!-- &#45;51315321519590800 -->
<g id="node7" class="node"><title>&#45;51315321519590800</title>
<polygon fill="none" stroke="black" points="314.394,-475.074 260.394,-475.074 260.394,-439.074 314.394,-439.074 314.394,-475.074"/>
</g>
<!-- 9067736417837855225 -->
<g id="node10" class="node"><title>9067736417837855225</title>
<ellipse fill="none" stroke="black" cx="287.394" cy="-617.664" rx="106.681" ry="106.681"/>
<text text-anchor="middle" x="287.394" y="-613.964" font-family="Times,serif" font-size="14.00">determine_threshold_in_tif</text>
</g>
<!-- &#45;51315321519590800&#45;&gt;9067736417837855225 -->
<g id="edge8" class="edge"><title>&#45;51315321519590800&#45;&gt;9067736417837855225</title>
<path fill="none" stroke="black" d="M287.394,-475.348C287.394,-482.319 287.394,-490.99 287.394,-500.585"/>
<polygon fill="black" stroke="black" points="283.895,-500.885 287.394,-510.885 290.895,-500.885 283.895,-500.885"/>
</g>
<!-- &#45;301965166411201407&#45;&gt;&#45;51315321519590800 -->
<g id="edge5" class="edge"><title>&#45;301965166411201407&#45;&gt;&#45;51315321519590800</title>
<path fill="none" stroke="black" d="M287.394,-403.27C287.394,-412.289 287.394,-421.093 287.394,-428.845"/>
<polygon fill="black" stroke="black" points="283.895,-429.018 287.394,-439.018 290.895,-429.018 283.895,-429.018"/>
</g>
<!-- &#45;5237193158473859480 -->
<g id="node9" class="node"><title>&#45;5237193158473859480</title>
<polygon fill="none" stroke="black" points="300.394,-796.255 246.394,-796.255 246.394,-760.255 300.394,-760.255 300.394,-796.255"/>
</g>
<!-- &#45;5237193158473859480&#45;&gt;&#45;7994978522418077316 -->
<g id="edge12" class="edge"><title>&#45;5237193158473859480&#45;&gt;&#45;7994978522418077316</title>
<path fill="none" stroke="black" d="M257.751,-796.53C247.208,-808.173 232.684,-824.212 218.505,-839.87"/>
<polygon fill="black" stroke="black" points="215.709,-837.744 211.591,-847.506 220.898,-842.442 215.709,-837.744"/>
</g>
<!-- &#45;5237193158473859480&#45;&gt;5416966845816663259 -->
<g id="edge14" class="edge"><title>&#45;5237193158473859480&#45;&gt;5416966845816663259</title>
<path fill="none" stroke="black" d="M282.355,-796.53C289.163,-809.655 298.868,-828.365 307.922,-845.821"/>
<polygon fill="black" stroke="black" points="304.868,-847.533 312.579,-854.798 311.081,-844.309 304.868,-847.533"/>
</g>
<!-- &#45;5237193158473859480&#45;&gt;&#45;4102518829299978155 -->
<g id="edge17" class="edge"><title>&#45;5237193158473859480&#45;&gt;&#45;4102518829299978155</title>
<path fill="none" stroke="black" d="M270.983,-796.282C264.497,-842.077 246.367,-970.088 234.451,-1054.22"/>
<polygon fill="black" stroke="black" points="230.966,-1053.87 233.029,-1064.26 237.897,-1054.85 230.966,-1053.87"/>
</g>
<!-- 9067736417837855225&#45;&gt;&#45;5237193158473859480 -->
<g id="edge7" class="edge"><title>9067736417837855225&#45;&gt;&#45;5237193158473859480</title>
<path fill="none" stroke="black" d="M278.095,-724.005C277.258,-733.493 276.469,-742.422 275.787,-750.158"/>
<polygon fill="black" stroke="black" points="272.29,-749.964 274.897,-760.234 279.263,-750.58 272.29,-749.964"/>
</g>
<!-- 466274892095801353 -->
<g id="node11" class="node"><title>466274892095801353</title>
<polygon fill="none" stroke="black" points="214.394,-1027.74 160.394,-1027.74 160.394,-991.744 214.394,-991.744 214.394,-1027.74"/>
</g>
<!-- 466274892095801353&#45;&gt;&#45;4102518829299978155 -->
<g id="edge18" class="edge"><title>466274892095801353&#45;&gt;&#45;4102518829299978155</title>
<path fill="none" stroke="black" d="M192.476,-1027.9C194.845,-1035.9 197.844,-1046.02 201.038,-1056.81"/>
<polygon fill="black" stroke="black" points="197.688,-1057.82 203.884,-1066.41 204.4,-1055.83 197.688,-1057.82"/>
</g>
<!-- &#45;7994978522418077316&#45;&gt;466274892095801353 -->
<g id="edge9" class="edge"><title>&#45;7994978522418077316&#45;&gt;466274892095801353</title>
<path fill="none" stroke="black" d="M179.392,-955.202C180.788,-964.539 182.165,-973.756 183.374,-981.842"/>
<polygon fill="black" stroke="black" points="179.912,-982.362 184.852,-991.734 186.836,-981.327 179.912,-982.362"/>
</g>
<!-- &#45;7504968928822703942 -->
<g id="node13" class="node"><title>&#45;7504968928822703942</title>
<polygon fill="none" stroke="black" points="350.394,-1027.74 296.394,-1027.74 296.394,-991.744 350.394,-991.744 350.394,-1027.74"/>
</g>
<!-- &#45;7504968928822703942&#45;&gt;&#45;4102518829299978155 -->
<g id="edge19" class="edge"><title>&#45;7504968928822703942&#45;&gt;&#45;4102518829299978155</title>
<path fill="none" stroke="black" d="M309.279,-1027.9C299.794,-1039.43 286.668,-1055.38 273.53,-1071.35"/>
<polygon fill="black" stroke="black" points="270.746,-1069.23 267.095,-1079.17 276.151,-1073.67 270.746,-1069.23"/>
</g>
<!-- 5416966845816663259&#45;&gt;&#45;7504968928822703942 -->
<g id="edge13" class="edge"><title>5416966845816663259&#45;&gt;&#45;7504968928822703942</title>
<path fill="none" stroke="black" d="M329.018,-937.677C327.856,-952.353 326.589,-968.377 325.551,-981.487"/>
<polygon fill="black" stroke="black" points="322.041,-981.477 324.741,-991.722 329.019,-982.029 322.041,-981.477"/>
</g>
<!-- &#45;4475430412521897260 -->
<g id="node15" class="node"><title>&#45;4475430412521897260</title>
<polygon fill="none" stroke="black" points="250.394,-1274.83 196.394,-1274.83 196.394,-1238.83 250.394,-1238.83 250.394,-1274.83"/>
</g>
<!-- 9020648109222655205 -->
<g id="node18" class="node"><title>9020648109222655205</title>
<ellipse fill="none" stroke="black" cx="223.394" cy="-1402.47" rx="91.784" ry="91.784"/>
<text text-anchor="middle" x="223.394" y="-1398.77" font-family="Times,serif" font-size="14.00">remove_sigma_naught</text>
</g>
<!-- &#45;4475430412521897260&#45;&gt;9020648109222655205 -->
<g id="edge22" class="edge"><title>&#45;4475430412521897260&#45;&gt;9020648109222655205</title>
<path fill="none" stroke="black" d="M223.394,-1274.87C223.394,-1282.01 223.394,-1290.92 223.394,-1300.69"/>
<polygon fill="black" stroke="black" points="219.895,-1300.71 223.394,-1310.71 226.895,-1300.71 219.895,-1300.71"/>
</g>
<!-- &#45;4102518829299978155&#45;&gt;&#45;4475430412521897260 -->
<g id="edge16" class="edge"><title>&#45;4102518829299978155&#45;&gt;&#45;4475430412521897260</title>
<path fill="none" stroke="black" d="M223.394,-1202.87C223.394,-1211.95 223.394,-1220.79 223.394,-1228.57"/>
<polygon fill="black" stroke="black" points="219.895,-1228.76 223.394,-1238.76 226.895,-1228.76 219.895,-1228.76"/>
</g>
<!-- &#45;2459264897276608540 -->
<g id="node17" class="node"><title>&#45;2459264897276608540</title>
<polygon fill="none" stroke="black" points="250.394,-1566.12 196.394,-1566.12 196.394,-1530.12 250.394,-1530.12 250.394,-1566.12"/>
</g>
<!-- 9020648109222655205&#45;&gt;&#45;2459264897276608540 -->
<g id="edge21" class="edge"><title>9020648109222655205&#45;&gt;&#45;2459264897276608540</title>
<path fill="none" stroke="black" d="M223.394,-1494.44C223.394,-1503.57 223.394,-1512.25 223.394,-1519.84"/>
<polygon fill="black" stroke="black" points="219.895,-1520.1 223.394,-1530.1 226.895,-1520.1 219.895,-1520.1"/>
</g>
<!-- 2528616757435730342 -->
<g id="node19" class="node"><title>2528616757435730342</title>
<polygon fill="none" stroke="black" points="439.394,-97.9429 385.394,-97.9429 385.394,-61.9429 439.394,-61.9429 439.394,-97.9429"/>
</g>
</g>
</svg>
